<?xml version="1.0" standalone="no"?>
<!DOCTYPE svg PUBLIC "-//W3C//DTD SVG 20010904//EN"
 "http://www.w3.org/TR/2001/REC-SVG-20010904/DTD/svg10.dtd">
<svg version="1.0" xmlns="http://www.w3.org/2000/svg"
 width="400.000000pt" height="400.000000pt" viewBox="0 0 400.000000 400.000000"
 preserveAspectRatio="xMidYMid meet">
<metadata>
Created by potrace 1.14, written by Peter Selinger 2001-2017
</metadata>
<g transform="translate(0.000000,400.000000) scale(0.100000,-0.100000)"
fill="#000000" stroke="none">
<path d="M540 3760 c-11 -7 -14 -25 -12 -70 2 -64 3 -69 46 -235 32 -124 33
-188 5 -234 l-21 -35 -19 25 c-10 13 -33 53 -50 89 -27 56 -34 85 -45 204 -15
161 -28 186 -95 186 -117 0 -207 -217 -168 -402 15 -71 42 -122 102 -190 l49
-57 -26 -53 c-31 -62 -35 -150 -10 -204 18 -37 99 -96 165 -119 48 -17 183
-19 249 -4 25 6 86 29 135 53 100 47 133 80 172 175 59 145 -2 265 -159 315
-14 4 -18 17 -19 58 -3 137 -8 180 -33 257 -31 96 -76 171 -130 219 -29 25
-45 32 -79 32 -23 0 -49 -5 -57 -10z m80 -61 c0 -5 5 -7 10 -4 6 3 13 -2 17
-12 3 -10 12 -22 20 -26 7 -4 18 -18 25 -30 11 -21 10 -21 -8 -8 -10 8 -6 2 9
-13 16 -16 26 -34 23 -43 -3 -8 -2 -12 3 -8 13 7 49 -112 49 -165 1 -75 21
-221 32 -235 6 -7 28 -15 51 -18 53 -7 85 -29 109 -77 34 -67 23 -136 -36
-221 -19 -28 -48 -47 -117 -80 -84 -39 -100 -43 -187 -47 -115 -5 -160 6 -225
56 -45 34 -50 42 -53 82 -5 71 5 103 53 165 49 62 49 63 36 84 -8 12 -15 13
-34 4 -22 -10 -28 -7 -68 40 -57 65 -79 98 -78 117 0 10 3 8 9 -5 7 -16 9 -17
9 -3 1 9 -6 21 -15 26 -14 8 -16 25 -12 123 4 116 20 176 40 148 6 -10 7 -7 3
10 -5 17 -4 21 5 16 8 -5 11 -3 8 6 -5 16 28 49 48 49 23 0 32 -32 42 -155 11
-127 33 -195 90 -280 34 -51 35 -51 80 -53 32 -1 41 4 65 39 51 70 47 178 -14
378 -24 78 -26 151 -4 151 8 0 15 -5 15 -11z"/>
<path d="M261 3514 c0 -11 3 -14 6 -6 3 7 2 16 -1 19 -3 4 -6 -2 -5 -13z"/>
<path d="M756 3107 c-16 -16 -26 -37 -25 -54 0 -26 1 -26 12 -9 35 57 76 70
127 41 35 -20 42 -18 38 7 -2 13 -11 22 -23 24 -11 1 -39 5 -62 9 -37 6 -45 4
-67 -18z"/>
<path d="M798 3059 c-35 -20 -9 -99 33 -99 23 0 40 36 29 64 -10 30 -42 47
-62 35z m32 -23 c0 -17 -27 -29 -35 -16 -4 6 -3 15 0 20 9 15 35 12 35 -4z"/>
<path d="M431 2991 c-14 -16 -36 -45 -49 -66 -18 -30 -20 -40 -10 -46 21 -14
26 -11 33 21 4 16 19 43 35 60 26 28 33 30 67 24 47 -8 34 11 -16 26 -30 8
-36 6 -60 -19z"/>
<path d="M460 2921 c-15 -29 -12 -45 11 -75 31 -39 62 -32 74 16 5 21 1 33
-19 52 -30 31 -52 33 -66 7z m55 -10 c7 -12 -32 -34 -45 -26 -5 3 -7 12 -3 20
6 17 39 20 48 6z"/>
<path d="M3280 3410 c-157 -27 -455 -150 -615 -255 -152 -99 -135 -93 -228
-78 -53 9 -118 12 -183 9 l-102 -6 -12 48 c-6 26 -14 82 -17 126 -9 126 -48
156 -168 129 -135 -31 -250 -121 -416 -328 -109 -135 -141 -185 -135 -209 4
-18 -9 -35 -69 -90 -42 -37 -93 -94 -115 -127 -47 -68 -120 -215 -120 -240 0
-10 -11 -20 -25 -23 -14 -4 -52 -34 -84 -67 l-59 -60 -7 78 c-9 109 -24 170
-43 179 -20 8 -150 22 -277 29 -110 7 -126 -2 -132 -72 -7 -76 19 -106 169
-198 l33 -20 6 -180 c4 -99 12 -200 17 -225 6 -25 11 -72 12 -106 0 -107 58
-383 102 -494 26 -66 29 -84 25 -145 -5 -76 -36 -161 -87 -241 -32 -51 -38
-89 -17 -97 18 -7 28 1 57 48 68 107 110 225 110 305 0 52 -8 83 -49 200 -17
47 -34 110 -40 140 -5 30 -15 86 -22 124 -14 79 -17 74 82 113 l57 21 30 -46
c17 -26 43 -59 59 -74 15 -14 36 -38 46 -53 17 -23 109 -89 236 -169 25 -15
88 -69 139 -118 79 -77 97 -89 119 -85 15 3 32 -1 40 -9 18 -18 35 -10 57 26
9 17 21 30 26 30 4 0 28 -22 53 -50 25 -27 49 -50 55 -50 5 0 23 -23 41 -51
28 -46 30 -54 18 -73 -39 -58 -117 -259 -117 -300 0 -10 17 -55 38 -100 21
-44 63 -139 93 -209 30 -71 61 -133 70 -137 9 -5 29 -6 44 -1 27 7 31 15 66
142 20 74 49 170 64 213 24 69 26 82 15 100 -8 12 -32 76 -55 142 -39 115 -40
122 -23 133 10 6 18 23 18 37 0 32 24 73 55 97 l24 17 6 -37 c15 -92 16 -94
63 -124 25 -15 61 -34 81 -40 20 -7 97 -41 171 -76 282 -135 362 -167 401
-161 42 6 31 41 -18 58 -36 12 -43 19 -43 40 0 44 58 280 75 306 18 27 28 29
91 13 51 -13 70 -4 60 29 -5 15 -21 24 -57 31 -76 17 -95 14 -134 -20 -41 -36
-38 -36 -224 8 l-116 27 50 13 c148 40 295 92 425 150 44 20 217 121 249 145
24 18 24 18 40 -9 23 -40 87 -187 112 -258 25 -73 73 -306 88 -430 41 -324 52
-390 67 -405 14 -13 17 -13 30 5 8 11 12 31 9 45 -2 14 -16 120 -31 235 -48
391 -97 581 -210 808 -42 83 -55 139 -35 151 16 10 60 133 71 198 6 35 15 129
20 209 9 137 9 152 -11 215 -12 38 -37 100 -56 139 l-35 69 32 96 c38 115 44
127 131 305 126 260 164 403 121 466 -61 91 -148 122 -282 99z m121 -209 c27
-33 24 -74 -11 -166 -37 -98 -42 -107 -105 -220 -27 -49 -59 -112 -70 -139
-16 -42 -26 -52 -54 -60 -47 -13 -85 9 -211 128 -58 54 -128 116 -156 138 -61
46 -61 63 -3 110 21 17 36 35 32 41 -3 6 -1 7 5 3 6 -3 22 4 35 16 61 57 267
154 372 176 63 13 145 -1 166 -27z m-628 -906 c4 -8 -1 -37 -9 -64 -11 -37
-25 -59 -58 -85 -73 -60 -128 -79 -246 -84 -114 -4 -159 8 -225 62 l-30 24 28
22 c20 16 27 30 27 56 l0 34 118 1 c77 0 159 8 242 23 156 29 147 29 153 11z
m-913 -11 c0 -9 -14 -41 -31 -70 l-30 -54 -59 0 c-78 0 -143 -31 -166 -77 -19
-42 -32 -47 -88 -39 -32 5 -57 18 -90 47 -25 23 -46 44 -46 49 0 4 13 13 29
20 31 12 57 59 47 85 -5 13 10 15 102 16 59 0 154 8 212 18 58 10 108 19 113
20 4 0 7 -6 7 -15z m340 -279 c14 -2 50 -6 80 -10 317 -39 625 -110 840 -195
30 -12 79 -29 108 -37 28 -9 52 -21 52 -27 -1 -31 -46 -103 -94 -149 -63 -61
-109 -80 -261 -110 -98 -19 -147 -21 -455 -22 l-345 -1 -59 -38 c-32 -21 -75
-53 -96 -72 l-37 -34 -51 64 -52 63 -118 7 c-87 5 -151 15 -243 40 -68 19
-159 41 -202 51 -102 22 -203 74 -245 126 -34 43 -64 130 -66 188 l-1 34 90
24 c287 77 519 98 603 55 l42 -22 0 -68 c0 -115 29 -177 66 -141 11 11 12 22
4 49 -6 19 -10 63 -10 97 0 62 0 63 28 63 46 0 103 20 126 45 12 13 35 25 51
28 29 5 193 -1 245 -8z m-782 -569 c97 -25 214 -48 260 -52 l83 -7 -68 -71
c-38 -39 -78 -84 -89 -99 l-20 -28 -84 86 c-47 47 -112 104 -145 125 -76 50
-130 90 -121 90 4 0 87 -20 184 -44z m1622 -2 c0 -10 -205 -101 -310 -137
-131 -44 -217 -67 -274 -71 -41 -3 -45 -1 -59 28 -7 17 -25 54 -39 82 l-25 52
251 5 c191 5 274 11 346 25 118 24 110 23 110 16z"/>
<path d="M2171 1896 c-6 -7 -10 -24 -9 -37 3 -20 -6 -28 -52 -51 -158 -78
-421 -130 -653 -129 -116 0 -139 -2 -144 -15 -11 -30 19 -42 117 -47 99 -5
266 11 393 39 39 9 91 20 114 25 24 5 90 27 148 49 76 30 110 49 125 70 26 36
26 86 1 100 -25 13 -26 13 -40 -4z"/>
</g>
</svg>
